<?xml version="1.0" encoding="UTF-8" standalone="no"?>
<!-- Created with Inkscape (http://www.inkscape.org/) -->

<svg
   xmlns:dc="http://purl.org/dc/elements/1.1/"
   xmlns:cc="http://creativecommons.org/ns#"
   xmlns:rdf="http://www.w3.org/1999/02/22-rdf-syntax-ns#"
   xmlns:svg="http://www.w3.org/2000/svg"
   xmlns="http://www.w3.org/2000/svg"
   xmlns:sodipodi="http://sodipodi.sourceforge.net/DTD/sodipodi-0.dtd"
   xmlns:inkscape="http://www.inkscape.org/namespaces/inkscape"
   width="123.2813mm"
   height="26.744486mm"
   viewBox="0 0 123.2813 26.744486"
   version="1.1"
   id="svg8"
   inkscape:version="0.92.2 (5c3e80d, 2017-08-06)"
   sodipodi:docname="postscript_us.svg">
  <defs
     id="defs2" />
  <sodipodi:namedview
     id="base"
     pagecolor="#ffffff"
     bordercolor="#666666"
     borderopacity="1.0"
     inkscape:pageopacity="0.0"
     inkscape:pageshadow="2"
     inkscape:zoom="0.35"
     inkscape:cx="-52.741763"
     inkscape:cy="41.969332"
     inkscape:document-units="mm"
     inkscape:current-layer="layer1"
     showgrid="false"
     fit-margin-top="0"
     fit-margin-left="0"
     fit-margin-right="0"
     fit-margin-bottom="0"
     inkscape:window-width="1366"
     inkscape:window-height="705"
     inkscape:window-x="-8"
     inkscape:window-y="-8"
     inkscape:window-maximized="1" />
  <metadata
     id="metadata5">
    <rdf:RDF>
      <cc:Work
         rdf:about="">
        <dc:format>image/svg+xml</dc:format>
        <dc:type
           rdf:resource="http://purl.org/dc/dcmitype/StillImage" />
        <dc:title></dc:title>
      </cc:Work>
    </rdf:RDF>
  </metadata>
  <g
     inkscape:label="Layer 1"
     inkscape:groupmode="layer"
     id="layer1"
     transform="translate(-32.475425,-133.19323)">
    <g
       id="surface506"
       transform="matrix(0.35277775,0,0,0.35277775,-10.883908,-1.9335261)">
      <path
         id="path10"
         d="m 218.87109,434.56641 c 0,0.85937 -0.30468,1.59765 -0.92187,2.21484 -0.61328,0.61328 -1.35547,0.92187 -2.21485,0.92187 h -3.14453 v -22.99609 c 0,-4.3125 1.26172,-7.25 3.79297,-8.82031 2.51953,-1.56641 5.26563,-2.35547 8.21875,-2.35547 1.53906,0 3.08985,0.28906 4.66797,0.875 1.57031,0.58203 2.8125,1.43359 3.73828,2.53906 1.85156,2.40235 2.77344,5.48438 2.77344,9.23828 0,3.87891 -0.92188,7.01563 -2.77344,9.41797 -1.84765,2.34375 -4.21875,3.50781 -7.11328,3.50781 -1.54297,0 -2.89062,-0.27343 -4.06641,-0.82812 -1.23046,-0.61328 -2.21484,-1.57422 -2.95703,-2.85938 z m 10.53125,-18.10938 c 0,-2.40234 -0.46484,-4.24609 -1.38672,-5.53906 -0.92187,-1.29297 -2.24609,-1.94141 -3.97265,-1.94141 -1.66406,0 -2.95703,0.64844 -3.87891,1.94141 -0.85937,1.16406 -1.29297,3.01953 -1.29297,5.53906 0,2.34375 0.46485,4.10156 1.38672,5.26563 0.92578,1.29296 2.25,1.9414 3.97266,1.9414 1.60156,0 2.86328,-0.64844 3.78515,-1.9414 0.92188,-1.29297 1.38672,-3.05079 1.38672,-5.26563"
         style="fill:#303030;fill-opacity:1;fill-rule:nonzero;stroke:none"
         inkscape:connector-curvature="0" />
      <path
         id="path12"
         d="m 241.85547,426.4375 c -1.29297,-1.10938 -2.21485,-2.60156 -2.77344,-4.48438 -0.55078,-1.875 -0.82812,-3.83203 -0.82812,-5.86718 0,-1.66016 0.22656,-3.32422 0.69531,-4.98828 0.45703,-1.66407 1.17969,-3.04297 2.16406,-4.15235 1.60156,-1.84765 3.66797,-2.9414 6.19141,-3.28125 2.52734,-0.33984 4.80859,-0.14062 6.83984,0.60156 2.33594,0.92188 4.0625,2.52735 5.17188,4.80469 1.04687,2.02735 1.57031,4.40235 1.57031,7.11328 0,1.96875 -0.21485,3.66407 -0.64844,5.07422 -0.43359,1.41797 -0.98437,2.625 -1.66406,3.61328 -1.47266,2.02344 -3.35547,3.28516 -5.63672,3.78125 -2.03125,0.55469 -4.07422,0.60157 -6.14063,0.14453 -2.0625,-0.46875 -3.71093,-1.2539 -4.9414,-2.35937 z m 4.42969,-16.26172 c -1.29297,1.41797 -1.875,3.53125 -1.75,6.32813 0.12109,2.80078 0.64843,4.7539 1.57031,5.86718 0.37109,0.4961 1.01562,0.90625 1.9375,1.2461 0.92187,0.33593 1.86328,0.37109 2.8164,0.0937 0.95313,-0.27735 1.80469,-0.96875 2.54688,-2.08203 0.73047,-1.10157 1.13281,-2.89063 1.19531,-5.35157 0,-2.22265 -0.35547,-3.88672 -1.0625,-4.98828 -0.71094,-1.11328 -1.52344,-1.82422 -2.44531,-2.1289 -0.92188,-0.3086 -1.85156,-0.32422 -2.77344,-0.0469 -0.92187,0.28125 -1.60156,0.63672 -2.03515,1.0625"
         style="fill:#303030;fill-opacity:1;fill-rule:nonzero;stroke:none"
         inkscape:connector-curvature="0" />
      <path
         id="path14"
         d="m 262.95312,420.52734 h 6.28125 c 0.0547,1.22657 0.51954,2.16016 1.37891,2.77344 0.92969,0.61328 2.16016,0.92188 3.69922,0.92188 1.10937,0 2.0625,-0.21094 2.85937,-0.64454 0.74219,-0.43359 1.11329,-1.01953 1.11329,-1.75781 0,-1.10547 -1.29297,-1.9414 -3.87891,-2.49219 -1.11328,-0.1875 -1.94141,-0.37109 -2.5,-0.55859 -3.26172,-0.79687 -5.44531,-1.75 -6.55859,-2.86328 -1.23047,-1.10938 -1.84375,-2.58594 -1.84375,-4.4375 0,-2.33984 0.89062,-4.28125 2.67968,-5.81641 1.85157,-1.42187 4.25,-2.1289 7.20703,-2.1289 3.20704,0 5.76172,0.70703 7.66797,2.12109 1.78907,1.54297 2.74219,3.54688 2.86328,6.00391 h -3.97656 c -1.16406,0 -2.05469,-0.51953 -2.67187,-1.56641 -0.25,-0.24609 -0.4961,-0.48828 -0.73828,-0.74219 -0.74219,-0.55078 -1.75782,-0.82812 -3.05079,-0.82812 -1.23046,0 -2.15234,0.18359 -2.77734,0.55078 -0.55078,0.37109 -0.82812,0.93359 -0.82812,1.66406 0,0.98828 1.60156,1.82031 4.80078,2.5 0.37109,0.11719 0.69531,0.21094 0.97265,0.27735 0.27344,0.0625 0.53516,0.0937 0.78516,0.0937 3.14062,0.79687 5.32422,1.72656 6.55078,2.76562 1.17578,1.11328 1.75781,2.59375 1.75781,4.4375 0,2.71094 -0.98437,4.80859 -2.95312,6.28516 -1.84766,1.35547 -4.6211,2.03125 -8.3086,2.03125 -3.51562,0 -6.13281,-0.70703 -7.85156,-2.12891 -1.78906,-1.41016 -2.67969,-3.47656 -2.67969,-6.1875 z m 0,0"
         style="fill:#303030;fill-opacity:1;fill-rule:nonzero;stroke:none"
         inkscape:connector-curvature="0" />
      <path
         id="path16"
         d="m 297.94922,428.65234 c -2.03516,0.12891 -4.23438,0.0937 -6.60547,-0.0937 -2.375,-0.17968 -3.55859,-1.69531 -3.55859,-4.52343 v -27.15625 h 3.32812 c 0.80469,0 1.51172,0.30468 2.12891,0.92187 0.61328,0.61328 0.92187,1.35547 0.92187,2.21484 v 4.15235 h 3.78516 v 1.29297 c 0,0.92187 -0.3086,1.67968 -0.92578,2.26953 -0.61328,0.58594 -1.35547,0.875 -2.21485,0.875 h -0.64453 v 13.67969 c 0,1.04687 0.61328,1.5664 1.84375,1.5664 h 1.94141 z m 0,0"
         style="fill:#303030;fill-opacity:1;fill-rule:nonzero;stroke:none"
         inkscape:connector-curvature="0" />
      <path
         id="path18"
         d="m 300.05859,420.52734 h 6.28516 c 0.0547,1.22657 0.51953,2.16016 1.37891,2.77344 0.92968,0.61328 2.16015,0.92188 3.69531,0.92188 1.11328,0 2.0664,-0.21094 2.86328,-0.64454 0.74219,-0.43359 1.10937,-1.01953 1.10937,-1.75781 0,-1.10547 -1.28906,-1.9414 -3.875,-2.49219 -1.11328,-0.1875 -1.9414,-0.37109 -2.5,-0.55859 -3.26171,-0.79687 -5.44921,-1.75 -6.55859,-2.86328 -1.23047,-1.10938 -1.84375,-2.58594 -1.84375,-4.4375 0,-2.33984 0.89063,-4.28125 2.67969,-5.81641 1.85156,-1.42187 4.25,-2.1289 7.20312,-2.1289 3.21094,0 5.76172,0.70703 7.67188,2.12109 1.78906,1.54297 2.74219,3.54688 2.85937,6.00391 h -3.97265 c -1.16407,0 -2.0586,-0.51953 -2.67188,-1.56641 -0.25,-0.24609 -0.49609,-0.48828 -0.74219,-0.74219 -0.73828,-0.55078 -1.75781,-0.82812 -3.04687,-0.82812 -1.23047,0 -2.15234,0.18359 -2.77734,0.55078 -0.55079,0.37109 -0.82813,0.93359 -0.82813,1.66406 0,0.98828 1.60156,1.82031 4.80078,2.5 0.3711,0.11719 0.69531,0.21094 0.97266,0.27735 0.27344,0.0625 0.53515,0.0937 0.78515,0.0937 3.13672,0.79687 5.32032,1.72656 6.55079,2.76562 1.17578,1.11328 1.75781,2.59375 1.75781,4.4375 0,2.71094 -0.98438,4.80859 -2.95703,6.28516 -1.84375,1.35547 -4.61719,2.03125 -8.30469,2.03125 -3.51953,0 -6.13672,-0.70703 -7.85156,-2.12891 -1.78907,-1.41016 -2.6836,-3.47656 -2.6836,-6.1875 z m 0,0"
         style="fill:#303030;fill-opacity:1;fill-rule:nonzero;stroke:none"
         inkscape:connector-curvature="0" />
      <path
         id="path20"
         d="m 341.55078,421.07812 h 4.62109 c -0.67968,2.58594 -1.97265,4.55469 -3.8789,5.91016 -1.91016,1.42188 -4.3125,2.12891 -7.20703,2.12891 -3.51563,0 -6.25,-1.14063 -8.21875,-3.42188 -1.97266,-2.21484 -2.95703,-5.38281 -2.95703,-9.51172 0,-3.9414 0.95312,-7.02343 2.85937,-9.23828 1.97266,-2.28125 4.71484,-3.42187 8.22266,-3.42187 3.69922,0 6.55859,1.10937 8.59375,3.32422 1.10156,1.35937 1.90625,2.92578 2.39453,4.71484 h -6.46485 c -0.30468,-0.61328 -0.61328,-1.07813 -0.92187,-1.38672 -0.80078,-0.85937 -1.9375,-1.29297 -3.41797,-1.29297 -1.35156,0 -2.46094,0.4336 -3.32031,1.29297 -1.11328,1.23047 -1.66406,3.26172 -1.66406,6.10156 0,2.82813 0.55078,4.83203 1.66406,6 0.79687,0.98438 1.99609,1.48047 3.60156,1.48047 1.04297,0 1.94141,-0.21094 2.67188,-0.64453 0.1914,-0.0664 0.35546,-0.17578 0.51171,-0.32422 0.15235,-0.16015 0.32422,-0.32422 0.50782,-0.51172 0.125,-0.18359 0.36718,-0.42578 0.73828,-0.73437 0.37109,-0.3086 0.92187,-0.46485 1.66406,-0.46485"
         style="fill:#303030;fill-opacity:1;fill-rule:nonzero;stroke:none"
         inkscape:connector-curvature="0" />
      <path
         id="path22"
         d="m 348.07422,428.65234 v -11.91797 c 0,-2.39453 0.35547,-4.41406 1.0664,-6.04687 0.70704,-1.63281 1.67969,-2.94141 2.90625,-3.92578 1.16797,-0.92188 2.53907,-1.59766 4.10938,-2.03125 1.56641,-0.4336 3.18359,-0.64844 4.84766,-0.64844 0.125,0 0.27734,0 0.46484,0 0.17969,0 0.33984,0 0.46484,0 v 6.55859 h -2.1289 c -1.78907,0 -3.11328,0.4336 -3.97266,1.29297 -0.85937,0.85938 -1.29297,2.21485 -1.29297,4.06641 v 12.65234 z m 0,0"
         style="fill:#303030;fill-opacity:1;fill-rule:nonzero;stroke:none"
         inkscape:connector-curvature="0" />
      <path
         id="path24"
         d="m 365.69531,404.08203 h 3.32422 c 0.85938,0 1.60156,0.30859 2.21484,0.92188 0.61719,0.61718 0.92188,1.35546 0.92188,2.21484 v 21.43359 h -6.46094 z m 0,-7.20312 h 3.32422 c 0.85938,0 1.60156,0.30468 2.21484,0.92187 0.61719,0.61328 0.92188,1.35547 0.92188,2.22266 v 1.9375 h -6.46094 z m 0,0"
         style="fill:#303030;fill-opacity:1;fill-rule:nonzero;stroke:none"
         inkscape:connector-curvature="0" />
      <path
         id="path26"
         d="m 381.41406,434.56641 c 0,0.85937 -0.30859,1.59765 -0.92187,2.21484 -0.61719,0.61328 -1.35547,0.92187 -2.21485,0.92187 h -3.14453 v -22.99609 c 0,-4.3125 1.25781,-7.25 3.78906,-8.82031 2.52344,-1.56641 5.26563,-2.35547 8.22266,-2.35547 1.53906,0 3.08984,0.28906 4.66797,0.875 1.56641,0.58203 2.8125,1.43359 3.73437,2.53906 1.85157,2.40235 2.77735,5.48438 2.77735,9.23828 0,3.87891 -0.92578,7.01563 -2.77735,9.41797 -1.84375,2.34375 -4.21484,3.50781 -7.10937,3.50781 -1.54297,0 -2.89453,-0.27343 -4.06641,-0.82812 -1.23047,-0.61328 -2.21484,-1.57422 -2.95703,-2.85938 z m 10.53125,-18.10938 c 0,-2.40234 -0.46484,-4.24609 -1.38672,-5.53906 -0.92187,-1.29297 -2.24609,-1.94141 -3.97265,-1.94141 -1.66407,0 -2.95703,0.64844 -3.87891,1.94141 -0.85937,1.16406 -1.29297,3.01953 -1.29297,5.53906 0,2.34375 0.46485,4.10156 1.38672,5.26563 0.92188,1.29296 2.24609,1.9414 3.97266,1.9414 1.60156,0 2.86328,-0.64844 3.78515,-1.9414 0.92188,-1.29297 1.38672,-3.05079 1.38672,-5.26563"
         style="fill:#303030;fill-opacity:1;fill-rule:nonzero;stroke:none"
         inkscape:connector-curvature="0" />
      <path
         id="path28"
         d="m 411.99219,428.65234 c -2.03125,0.12891 -4.23047,0.0937 -6.60547,-0.0937 -2.3711,-0.17968 -3.55469,-1.69531 -3.55469,-4.52343 v -27.15625 h 3.32813 c 0.80078,0 1.51171,0.30468 2.125,0.92187 0.61718,0.61328 0.92578,1.35547 0.92578,2.21484 v 4.15235 h 3.78125 v 1.29297 c 0,0.92187 -0.30469,1.67968 -0.92188,2.26953 -0.61328,0.58594 -1.35547,0.875 -2.21484,0.875 h -0.64453 v 13.67969 c 0,1.04687 0.61328,1.5664 1.84375,1.5664 h 1.9375 z m 0,0"
         style="fill:#303030;fill-opacity:1;fill-rule:nonzero;stroke:none"
         inkscape:connector-curvature="0" />
      <path
         id="path30"
         d="m 417.30078,423.57031 h 3.14453 v 5.08203 h -5.08203 v -3.14453 c 0,-1.29297 0.64453,-1.9375 1.9375,-1.9375"
         style="fill:#303030;fill-opacity:1;fill-rule:nonzero;stroke:none"
         inkscape:connector-curvature="0" />
      <path
         id="path32"
         d="m 446.78516,404.08203 v 14.41016 c 0,4.375 -1.14454,7.23828 -3.42188,8.59375 -2.27734,1.35547 -4.76953,2.03125 -7.48047,2.03125 -2.64844,-0.125 -5.0664,-0.85938 -7.25,-2.21485 -2.18359,-1.35547 -3.28125,-4.16015 -3.28125,-8.41015 v -14.41016 h 6.46485 v 15.70313 c 0,1.47265 0.43359,2.55468 1.29296,3.23046 0.85938,0.67969 1.84375,1.01954 2.95313,1.01954 1.11328,0 2.11328,-0.33985 3.00391,-1.01954 0.89062,-0.67578 1.33984,-1.75781 1.33984,-3.23046 v -12.56641 c 0,-0.85938 0.29297,-1.59766 0.875,-2.21484 0.59375,-0.61329 1.34375,-0.92188 2.27344,-0.92188 z m 0,0"
         style="fill:#303030;fill-opacity:1;fill-rule:nonzero;stroke:none"
         inkscape:connector-curvature="0" />
      <path
         id="path34"
         d="m 450.57031,420.52734 h 6.28516 c 0.0547,1.22657 0.51953,2.16016 1.3789,2.77344 0.92969,0.61328 2.16016,0.92188 3.69532,0.92188 1.11328,0 2.0664,-0.21094 2.86328,-0.64454 0.73828,-0.43359 1.10937,-1.01953 1.10937,-1.75781 0,-1.10547 -1.29297,-1.9414 -3.8789,-2.49219 -1.10938,-0.1875 -1.9375,-0.37109 -2.4961,-0.55859 -3.26562,-0.79687 -5.44922,-1.75 -6.55859,-2.86328 -1.23047,-1.10938 -1.84766,-2.58594 -1.84766,-4.4375 0,-2.33984 0.89453,-4.28125 2.6836,-5.81641 1.85156,-1.42187 4.24609,-2.1289 7.20312,-2.1289 3.20703,0 5.76172,0.70703 7.67188,2.12109 1.78906,1.54297 2.74218,3.54688 2.85937,6.00391 h -3.97265 c -1.16797,0 -2.0586,-0.51953 -2.67188,-1.56641 -0.25391,-0.24609 -0.49609,-0.48828 -0.74219,-0.74219 -0.74218,-0.55078 -1.75781,-0.82812 -3.05078,-0.82812 -1.23047,0 -2.15234,0.18359 -2.77344,0.55078 -0.55078,0.37109 -0.82812,0.93359 -0.82812,1.66406 0,0.98828 1.60156,1.82031 4.80078,2.5 0.37109,0.11719 0.69531,0.21094 0.96875,0.27735 0.27734,0.0625 0.53516,0.0937 0.78906,0.0937 3.13672,0.79687 5.32032,1.72656 6.55078,2.76562 1.17579,1.11328 1.75782,2.59375 1.75782,4.4375 0,2.71094 -0.98438,4.80859 -2.95703,6.28516 -1.84375,1.35547 -4.61719,2.03125 -8.3086,2.03125 -3.51562,0 -6.13281,-0.70703 -7.85156,-2.12891 -1.78906,-1.41016 -2.67969,-3.47656 -2.67969,-6.1875 z m 0,0"
         style="fill:#303030;fill-opacity:1;fill-rule:nonzero;stroke:none"
         inkscape:connector-curvature="0" />
      <path
         id="path36"
         d="m 154.15234,414.49609 z m 0.004,-0.0469 z m -1.19922,3.8125 z m -11.28516,4.55859 v 4.25 c 0,6.07813 4.97266,11.05078 11.05079,11.05078 6.07812,0 11.05078,-4.97265 11.05078,-11.05078 v -4.25 h 4.25 c 6.07812,0 11.05078,-4.97265 11.05078,-11.05078 0,-6.07422 -4.97266,-11.04687 -11.05078,-11.04687 h -26.35157 v 11.75781 c 0.17969,0.67969 0.35157,1.36328 0.52344,2.04297 0.19531,0.78515 0.46875,1.79297 0.875,2.5 0.0391,0.0742 0.28906,0.46484 0.39844,0.46484 0.19922,-0.004 0.63281,-0.63672 0.72656,-0.78125 0.44531,-0.69141 0.8125,-1.49219 1.16406,-2.23828 0.37891,-0.79688 0.76172,-1.63672 1.23047,-2.38672 0.36719,-0.58594 0.92188,-1.33984 1.69141,-1.33594 0.65234,0 1.08984,0.53516 1.37109,1.0625 0.6211,1.15625 0.77735,2.42188 1.32813,3.55078 0.25,0.46485 0.54687,0.91797 0.89062,1.25782 l 0.004,0.008 0.0273,0.0273 0.0117,0.008 0.0117,0.0117 0.008,0.0117 0.0117,0.008 0.0352,0.0351 0.0156,0.008 0.0234,0.0234 0.0117,0.008 0.0117,0.0117 0.0156,0.0117 0.0117,0.0117 0.0117,0.008 0.0156,0.0117 0.0117,0.0117 0.0156,0.008 0.0117,0.0117 0.0156,0.008 0.0117,0.0117 0.0156,0.0117 0.0117,0.008 0.0156,0.0117 0.0156,0.008 0.0117,0.008 0.0156,0.0117 0.0312,0.0156 0.0156,0.0117 0.0117,0.008 0.0937,0.0469 0.0156,0.004 0.0312,0.0156 0.0156,0.004 0.0156,0.008 0.0156,0.004 0.0156,0.008 0.0937,0.0234 0.0195,0.004 h 0.0156 l 0.0156,0.004 h 0.0156 l 0.0156,0.004 h 0.0977 l 0.0156,-0.004 h 0.0156 l 0.0469,-0.0117 0.0117,-0.004 0.0312,-0.008 0.0117,-0.004 0.0156,-0.004 0.0117,-0.004 0.0156,-0.008 0.0117,-0.004 0.0156,-0.008 0.0117,-0.004 0.0156,-0.008 0.0117,-0.008 0.0156,-0.008 0.0234,-0.0156 0.0156,-0.008 0.0352,-0.0234 0.0156,-0.0117 0.0117,-0.008 0.0117,-0.0117 0.0117,-0.008 0.0117,-0.0117 0.0117,-0.008 0.0117,-0.0117 0.0117,-0.008 0.0352,-0.0352 0.0117,-0.008 0.0117,-0.0117 0.008,-0.0117 0.0352,-0.0352 0.008,-0.0117 0.0234,-0.0234 0.008,-0.0117 0.0117,-0.0117 0.008,-0.0117 0.0117,-0.0117 0.008,-0.0156 0.0117,-0.0117 0.008,-0.0117 0.0117,-0.0117 0.0156,-0.0234 0.0117,-0.0156 0.0469,-0.0703 0.008,-0.0156 0.0391,-0.0586 0.0156,-0.0274 0.0156,-0.0234 0.0156,-0.0274 0.0117,-0.0273 0.0156,-0.0234 0.0156,-0.0273 0.0117,-0.0274 0.0156,-0.0273 0.0117,-0.0273 0.0156,-0.0274 0.0234,-0.0547 0.0117,-0.0312 0.0156,-0.0273 0.0234,-0.0547 0.0234,-0.0586 0.0117,-0.0312 0.0117,-0.0273 0.0195,-0.0586 0.0117,-0.0312 0.0117,-0.0273 0.008,-0.0312 0.0117,-0.0274 0.0117,-0.0312 0.0469,-0.15234 0.0234,-0.0898 0.0625,-0.2461 0.0156,-0.0586 0.0117,-0.0625 0.0352,-0.18359 0.0234,-0.1211 0.0312,-0.20703 0.0156,-0.0898 0.004,-0.043 0.008,-0.043 v -0.004 l 0.008,-0.0391 v -0.004 l 0.004,-0.043 v -0.004 l 0.008,-0.0391 v -0.008 l 0.004,-0.0351 0.004,-0.008 c 0.12109,-0.82422 0.24218,-1.64844 0.38281,-2.47266 0.11328,-0.6875 0.23828,-1.38281 0.39844,-2.0625 0.10156,-0.44141 0.22656,-0.92969 0.41406,-1.33984 0.17187,-0.37891 0.4414,-0.7461 0.89844,-0.77344 0.45703,-0.0234 0.76562,0.32031 0.98046,0.67969 0.23047,0.39843 0.41016,0.88281 0.5586,1.3164 0.23437,0.67969 0.43359,1.37891 0.625,2.07031 0.26562,0.95704 0.51172,1.92188 0.75,2.88282 0.19531,0.78515 0.47265,1.79297 0.875,2.5 0.043,0.0742 0.28906,0.46484 0.39844,0.46484 0.19921,-0.004 0.63671,-0.63672 0.72656,-0.78125 0.44531,-0.69141 0.8125,-1.49219 1.16797,-2.23828 0.3789,-0.79688 0.76172,-1.63672 1.22656,-2.38672 0.36719,-0.58594 0.92578,-1.33984 1.69141,-1.33594 0.65625,0 1.08984,0.53516 1.375,1.0625 0.87109,1.62891 0.82421,3.46875 2.24609,4.84375 0.23047,0.21875 0.58984,0.48828 0.93359,0.42969 0.3086,-0.0547 0.5586,-0.36719 0.71094,-0.62109 0.32813,-0.54297 0.50391,-1.25782 0.59375,-1.875 0.13672,-0.96485 0.28906,-1.92969 0.46484,-2.88672 l 0.0391,-0.19531 h 1.20312 c -0.21484,1.07812 -0.3789,2.17968 -0.53515,3.25 -0.1875,1.28125 -0.77344,3.23046 -2.26954,3.49609 -2.88671,0.51172 -3.48046,-3.90234 -4.35937,-5.73438 -0.0547,-0.11328 -0.27344,-0.52343 -0.41016,-0.58203 -0.20703,0.0469 -0.62109,0.6875 -0.71875,0.84766 -0.42187,0.69141 -0.77343,1.46484 -1.12109,2.19531 -0.0352,0.0742 -0.0703,0.14844 -0.10156,0.21875 l -0.6211,1.25781 c -0.16015,0.3086 -0.33203,0.60938 -0.51562,0.89454 -0.37891,0.58984 -0.94531,1.32031 -1.71485,1.32421 -0.67187,0.008 -1.13281,-0.52343 -1.4414,-1.0625 -0.46094,-0.80859 -0.76563,-1.89453 -0.99219,-2.79687 -0.37109,-1.47656 -0.74609,-2.98828 -1.20703,-4.4375 -0.0703,-0.20703 -0.28125,-0.85547 -0.48047,-1.28516 -0.14844,0.4375 -0.28516,1.07813 -0.32812,1.28907 -0.0781,0.37109 -0.15235,0.75 -0.21875,1.125 h 0.0273 c -0.19922,1.01171 -0.35547,2.03906 -0.50391,3.04296 v 0.004 l -0.008,0.0508 v 0.0156 l -0.008,0.0351 -0.004,0.0312 v 0.0195 l -0.008,0.0508 -0.0117,0.0586 -0.008,0.0625 -0.0117,0.0625 -0.008,0.0625 -0.0117,0.0664 -0.0117,0.0625 -0.0156,0.0664 -0.0117,0.0664 -0.0469,0.19922 -0.0156,0.0703 -0.0156,0.0664 -0.0195,0.0664 -0.0156,0.0703 -0.0195,0.0703 -0.0195,0.0664 -0.0234,0.0703 -0.0195,0.0703 -0.0234,0.0664 -0.0234,0.0703 -0.0234,0.0664 -0.0234,0.0703 -0.0273,0.0664 -0.0273,0.0703 -0.0547,0.13282 -0.0312,0.0664 -0.0273,0.0664 -0.0312,0.0664 -0.0312,0.0625 -0.0352,0.0664 -0.14063,0.25 -0.11718,0.17578 -0.043,0.0547 -0.0391,0.0547 -0.043,0.0547 -0.0469,0.0547 -0.043,0.0508 -0.0937,0.10157 -0.0508,0.0469 -0.0508,0.043 -0.0508,0.0469 -0.0508,0.043 -0.16407,0.11719 -0.0547,0.0352 -0.11719,0.0625 -0.0625,0.0312 -0.0625,0.0273 -0.125,0.0469 -0.13281,0.0391 -0.14063,0.0312 -0.082,0.0117 c -1.47656,0.21484 -2.34375,-0.87891 -2.95703,-2.23047 -0.63281,-1.13281 -0.75781,-2.35156 -1.31641,-3.51563 -0.0547,-0.11328 -0.27343,-0.52343 -0.41015,-0.58203 -0.20703,0.0469 -0.6211,0.6875 -0.72266,0.84766 -0.41797,0.69141 -0.76953,1.46484 -1.11719,2.19531 -0.3789,0.79297 -0.76562,1.63281 -1.23828,2.3711 -0.3789,0.58984 -0.94531,1.32031 -1.71484,1.32421 -0.67188,0.008 -1.13672,-0.52343 -1.44141,-1.0625 -0.13672,-0.23437 -0.25781,-0.49609 -0.36719,-0.76562 z m 30.00782,-13.74609 c 0,-0.57813 0.46875,-1.04297 1.04687,-1.04297 0.57813,0 1.04688,0.46484 1.04688,1.04297 0,0.57812 -0.46875,1.04687 -1.04688,1.04687 -0.57812,0 -1.04687,-0.46875 -1.04687,-1.04687"
         style="fill:#029959;fill-opacity:1;fill-rule:evenodd;stroke:none"
         inkscape:connector-curvature="0" />
      <path
         id="path38"
         d="m 171.60156,449.75391 c -1.28515,-1.01563 -1.5039,-2.88672 -0.48828,-4.17188 1.01563,-1.28906 2.88672,-1.50781 4.17188,-0.49219 1.28906,1.01953 1.50781,2.88672 0.49218,4.17188 -1.01953,1.28906 -2.88672,1.50781 -4.17578,0.49219 z m 10.81641,-12.33985 c -1.59375,2.02344 -3.39453,3.79297 -5.34375,5.30469 -2.57031,-1.98438 -6.27344,-1.53516 -8.29297,1.01953 -2.03125,2.57422 -1.59375,6.3125 0.98047,8.34766 2.57422,2.03125 6.3125,1.59375 8.34375,-0.98047 1.17578,-1.48828 1.52734,-3.36328 1.11328,-5.07422 2.30078,-1.74609 4.41406,-3.8125 6.28906,-6.17969 12.00391,-15.19922 9.41406,-37.26172 -5.78515,-49.26562 -15.19922,-12.00391 -37.26172,-9.41407 -49.26563,5.78515 -10.87109,13.76172 -9.76953,33.14453 1.81641,45.60157 -3.3086,4.29687 -3.24219,10.46875 0.45703,14.71484 0.74609,0.85547 1.59375,1.57422 2.5039,2.16016 l 0.26563,-0.23438 2.15625,-1.87891 0.96094,-0.83593 c 0.70312,0.12109 1.45703,-0.0664 2.03906,-0.57422 1.02734,-0.89453 1.13672,-2.45703 0.23828,-3.48828 -0.89844,-1.02735 -2.46094,-1.13672 -3.48828,-0.23828 -0.75391,0.65625 -1.01172,1.66796 -0.74609,2.5664 l -1.17579,1.02344 c -0.16015,-0.16016 -0.3164,-0.32422 -0.46484,-0.49609 -3.11328,-3.57422 -2.74219,-9 0.83203,-12.11329 3.57422,-3.11718 8.9961,-2.74218 12.11328,0.83204 0.14844,0.17187 0.28907,0.34765 0.42578,0.52734 l -1.1914,1.03906 c -0.85547,-0.38672 -1.89063,-0.26953 -2.64453,0.38672 -1.02735,0.89844 -1.13672,2.46094 -0.23828,3.49219 0.89843,1.02734 2.46093,1.13672 3.48828,0.23828 0.58203,-0.50781 0.86718,-1.22656 0.84765,-1.94141 l 0.97657,-0.85156 2.42187,-2.11328 c -0.45312,-0.98047 -1.05078,-1.91797 -1.79687,-2.77344 -3.85547,-4.41797 -10.31641,-5.22265 -15.09375,-2.10937 -10.29297,-11.0586 -11.26953,-28.27735 -1.61719,-40.4961 10.66015,-13.49609 30.24609,-15.79687 43.74219,-5.13672 13.49218,10.66016 15.79296,30.2461 5.13281,43.74219 z m -50.14063,4.55078 c 0.0352,-0.0469 0.0703,-0.0937 0.10938,-0.13672 -0.0391,0.043 -0.0742,0.0899 -0.10938,0.13672 z m 0.19532,-0.24609 c 0.0391,-0.0469 0.0742,-0.0937 0.11328,-0.13672 -0.0391,0.043 -0.0742,0.0898 -0.11328,0.13672 z m 0.16015,-0.19141 c 0.0469,-0.0586 0.0977,-0.11328 0.14844,-0.17187 -0.0508,0.0586 -0.10156,0.11328 -0.14844,0.17187 z m 0.19922,-0.22656 c 0.043,-0.0508 0.0898,-0.10156 0.13281,-0.14844 -0.043,0.0469 -0.0898,0.0977 -0.13281,0.14844 z m 0.1875,-0.20703 c 0.0547,-0.0586 0.11328,-0.11719 0.17188,-0.17578 -0.0586,0.0586 -0.11719,0.11719 -0.17188,0.17578 z m 0.1875,-0.19531 c 0.0703,-0.0703 0.13672,-0.13672 0.20703,-0.20313 -0.0703,0.0664 -0.13672,0.13281 -0.20703,0.20313 z m 0.20703,-0.20313 0.008,-0.008 c 0.0703,-0.0664 0.14063,-0.13281 0.21094,-0.19922 l 0.004,-0.004 c 0.0703,-0.0664 0.14453,-0.1289 0.21875,-0.19531 0.0703,-0.0625 0.14453,-0.125 0.21875,-0.18359 -0.0742,0.0586 -0.14844,0.12109 -0.21875,0.18359 -0.0742,0.0664 -0.14844,0.12891 -0.21875,0.19531 m 0.45703,-0.39453 c 0.0664,-0.0586 0.13281,-0.10937 0.19922,-0.16406 -0.0664,0.0547 -0.13281,0.10938 -0.19922,0.16406 z m 0.26172,-0.21093 c 0.0547,-0.043 0.10937,-0.0859 0.16797,-0.12891 -0.0586,0.043 -0.11328,0.0859 -0.16797,0.12891"
         style="fill:#029959;fill-opacity:1;fill-rule:evenodd;stroke:none"
         inkscape:connector-curvature="0" />
    </g>
  </g>
</svg>
